<svg xmlns="http://www.w3.org/2000/svg" id="a" viewBox="0 0 98.46 112.96"><defs><style>.b{stroke:#f9c737;}.b,.c,.d{fill:none;stroke-linecap:round;stroke-linejoin:round;stroke-width:2px;}.c{stroke:#1b1b1b;}.d{stroke:#c9c3b5;}</style></defs><rect class="c" x="79.95" y="57.39" width="11.83" height="20.02"></rect><path class="c" d="M26.01,52.49h-4.19c-8.24,0-14.91,6.68-14.91,14.91s6.68,14.91,14.91,14.91h58.13v-29.83h-23.28"></path><path class="d" d="M32.93,55.93h-8.85c-7.42,0-13.43,5.16-13.43,11.53s6.01,11.53,13.43,11.53h52.34v-23.05h-20.24"></path><line class="d" x1="83.89" y1="61.19" x2="87.84" y2="61.19"></line><line class="d" x1="83.89" y1="73.42" x2="87.84" y2="73.42"></line><rect class="b" x="36.01" y="47.24" width="17.42" height="14.98" rx="2.83" ry="2.83"></rect><path class="b" d="M51.55,47.12c0-4.26-3.06-7.71-6.83-7.71s-6.83,3.45-6.83,7.71"></path><line class="b" x1="44.72" y1="52.49" x2="44.72" y2="55.93"></line><path class="d" d="M73.84,87.99v4.96c0,4.12-3.34,7.46-7.46,7.46H23.05c-4.12,0-7.46-3.34-7.46-7.46v-6.54"></path><path class="d" d="M15.59,48.24v-10.87c0-4.12,3.34-7.46,7.46-7.46h43.33c4.12,0,7.46,3.34,7.46,7.46v9.88"></path></svg>