<svg xmlns="http://www.w3.org/2000/svg" id="a" viewBox="0 0 98.35 95.98"><defs><style>.b,.c,.d,.e,.f,.g,.h,.i,.j,.k{fill:none;}.b,.c,.f,.g{stroke:#f9c737;}.b,.c,.g,.h,.i{stroke-width:2px;}.b,.d,.e,.f,.g,.i,.j,.k{stroke-linecap:round;}.b,.e,.f,.k{stroke-linejoin:round;}.c,.d,.g,.h,.i,.j{stroke-miterlimit:10;}.d,.i,.k{stroke:#c9c3b5;}.e,.h,.j{stroke:#1b1b1b;}</style></defs><line class="i" x1="48.7" y1="41.46" x2="56.39" y2="41.46"></line><path class="g" d="M43.86,32.16h1.58c1.8,0,3.26,1.49,3.26,3.32v47.2c0,1.83-1.46,3.32-3.26,3.32h-1.58"></path><line class="i" x1="16.04" y1="58.93" x2="8.34" y2="58.93"></line><path class="g" d="M20.87,49.63h-1.58c-1.8,0-3.26,.49-3.26,1.09v15.44c0,.6,1.46,1.09,3.26,1.09h1.58"></path><rect class="h" x="22.02" y="25.43" width="20.8" height="14.17" rx="2.92" ry="2.92"></rect><rect class="h" x="22.02" y="43.04" width="20.8" height="14.17" rx="2.92" ry="2.92"></rect><rect class="h" x="22.02" y="60.65" width="20.8" height="14.17" rx="2.92" ry="2.92"></rect><rect class="h" x="22.02" y="78.26" width="20.8" height="14.17" rx="2.92" ry="2.92"></rect><circle class="c" cx="27.42" cy="29.74" r=".39"></circle><circle class="c" cx="27.42" cy="34.92" r=".39"></circle><circle class="c" cx="27.42" cy="83.01" r=".39"></circle><circle class="c" cx="27.42" cy="88.19" r=".39"></circle><circle class="c" cx="27.42" cy="47.64" r=".39"></circle><circle class="c" cx="27.42" cy="52.46" r=".39"></circle><circle class="c" cx="27.42" cy="65.33" r=".39"></circle><circle class="c" cx="27.42" cy="70.14" r=".39"></circle><line class="i" x1="8.34" y1="73.02" x2="8.34" y2="58.93"></line><line class="i" x1="56.39" y1="74.82" x2="56.39" y2="41.46"></line><circle class="d" cx="57.13" cy="80.76" r="5.24"></circle><circle class="d" cx="8.34" cy="78.91" r="5.24"></circle><line class="j" x1="54.62" y1="81.41" x2="56.34" y2="82.81"></line><line class="j" x1="60.35" y1="78.63" x2="56.34" y2="82.81"></line><line class="j" x1="5.47" y1="79.61" x2="7.19" y2="81"></line><line class="j" x1="11.21" y1="76.82" x2="7.19" y2="81"></line><line class="e" x1="85.5" y1="5.25" x2="67.51" y2="5.25"></line><path class="e" d="M63.82,5.25h-.72c-1.88,0-3.41,1.52-3.41,3.41V43.15c0,1.88,1.52,3.41,3.41,3.41h27.58c1.88,0,3.41-1.52,3.41-3.41V8.66c0-1.88-1.52-3.41-3.41-3.41h-1.15"></path><line class="f" x1="92.41" y1="25.64" x2="92.41" y2="9.28"></line><path class="f" d="M61.37,32.74v9.79c0,1.3,1.05,2.35,2.35,2.35h5.61"></path><line class="e" x1="87.51" y1="3.23" x2="87.51" y2="6.93"></line><line class="e" x1="65.59" y1="3.23" x2="65.59" y2="6.93"></line><line class="k" x1="84.53" y1="12.96" x2="64.62" y2="12.96"></line><line class="k" x1="86.68" y1="12.93" x2="90.26" y2="12.93"></line><line class="k" x1="88.47" y1="11.26" x2="88.47" y2="14.65"></line><line class="k" x1="84.53" y1="19.64" x2="64.62" y2="19.64"></line><line class="k" x1="86.68" y1="19.6" x2="90.26" y2="19.6"></line><line class="k" x1="88.47" y1="17.94" x2="88.47" y2="21.33"></line><line class="k" x1="84.53" y1="25.9" x2="64.62" y2="25.9"></line><line class="k" x1="86.68" y1="25.87" x2="90.26" y2="25.87"></line><line class="k" x1="88.47" y1="24.21" x2="88.47" y2="27.6"></line><line class="k" x1="84.65" y1="32.16" x2="64.74" y2="32.16"></line><line class="k" x1="86.79" y1="32.13" x2="90.38" y2="32.13"></line><line class="k" x1="88.59" y1="30.47" x2="88.59" y2="33.86"></line><line class="k" x1="84.65" y1="38.8" x2="64.74" y2="38.8"></line><line class="k" x1="86.79" y1="38.77" x2="90.38" y2="38.77"></line><line class="k" x1="88.59" y1="37.11" x2="88.59" y2="40.5"></line><polyline class="b" points="59.69 63.57 78.34 63.57 78.34 48.98"></polyline></svg>