<svg xmlns="http://www.w3.org/2000/svg" viewBox="0 0 98.02 93.39"><defs><style>.c{stroke:#f9c737;}.c,.d,.e,.f,.g{fill:none;stroke-width:2px;}.c,.d,.g{stroke-linecap:round;stroke-linejoin:round;}.d,.e,.f{stroke:#1b1b1b;}.e{opacity:.7;}.e,.f{stroke-miterlimit:10;}.f{opacity:.3;}.g{stroke:#c9c3b5;}</style></defs><g id="a"><circle class="d" cx="49.02" cy="56.58" r="26.86"></circle><circle class="g" cx="49.01" cy="56.58" r="23.88"></circle><line class="d" x1="49.02" y1="26.36" x2="49.02" y2="33.5"></line><line class="d" x1="49.02" y1="79.86" x2="49.02" y2="87"></line><line class="d" x1="79.34" y1="56.58" x2="72.2" y2="56.58"></line><line class="d" x1="25.84" y1="56.58" x2="18.7" y2="56.58"></line><circle class="c" cx="49.01" cy="56.58" r="13.6"></circle><line class="c" x1="42.57" y1="52.69" x2="49.01" y2="56.58"></line><line class="c" x1="57.38" y1="49.49" x2="49.02" y2="56.58"></line><path class="e" d="M30.63,13.47L3.78,60.84c-7.98,14.08,2.19,31.54,18.38,31.54h53.7c16.19,0,26.36-17.46,18.38-31.54L67.39,13.47c-8.09-14.28-28.66-14.28-36.76,0Z"></path><path class="f" d="M33.85,16.74L7.92,62.48c-6.58,11.62,1.81,26.02,15.16,26.02h51.86c13.35,0,21.74-14.4,15.16-26.02l-25.93-45.74c-6.67-11.78-23.64-11.78-30.32,0Z"></path></g><g id="b"></g></svg>