<svg xmlns="http://www.w3.org/2000/svg" viewBox="0 0 98.35 95.98"><defs><style>.c{stroke:#f9c737;}.c,.d{stroke-width:2px;}.c,.d,.e,.f,.g,.h{stroke-linecap:round;stroke-linejoin:round;}.c,.d,.e,.h{fill:none;}.d,.e{stroke:#1b1b1b;}.f{fill:#c9c3b5;}.f,.g,.h{stroke:#c9c3b5;}.g{fill:#f9c737;}</style></defs><g id="a"><rect class="h" x="2.01" y=".82" width="94.67" height="94.67" rx="5.61" ry="5.61"></rect><rect class="d" x="5.16" y="3.97" width="88.36" height="88.36" rx="2.74" ry="2.74"></rect></g><g id="b"><circle class="h" cx="49.34" cy="48.15" r="37.92"></circle><circle class="d" cx="49.34" cy="48.15" r="34.13"></circle><line class="c" x1="49.34" y1="7.07" x2="49.34" y2="16.73"></line><line class="c" x1="49.34" y1="79.4" x2="49.34" y2="89.07"></line><line class="c" x1="80.51" y1="48.15" x2="90.18" y2="48.15"></line><line class="c" x1="7.84" y1="48.15" x2="17.51" y2="48.15"></line><rect class="e" x="34.97" y="21.65" width="28.08" height="51.83"></rect><rect class="f" x="38.18" y="24.65" width="10" height="6.5"></rect><rect class="f" x="50.34" y="24.65" width="10" height="6.5"></rect><rect class="f" x="38.26" y="33.23" width="10" height="6.5"></rect><rect class="g" x="50.43" y="33.23" width="10" height="6.5"></rect><rect class="f" x="38.26" y="41.82" width="10" height="6.5"></rect><rect class="f" x="50.43" y="41.82" width="10" height="6.5"></rect><rect class="g" x="38.26" y="50.48" width="10" height="6.5"></rect><rect class="f" x="50.43" y="50.48" width="10" height="6.5"></rect><rect class="f" x="38.26" y="59.32" width="10" height="6.5"></rect><rect class="f" x="50.43" y="59.32" width="10" height="6.5"></rect></g></svg>